<?xml version="1.0" encoding="UTF-8"?>
<!-- Created with Inkscape (http://www.inkscape.org/) -->
<svg width="22.822" height="20.663" version="1.1" viewBox="0 0 22.822 20.663" xmlns="http://www.w3.org/2000/svg" xmlns:xlink="http://www.w3.org/1999/xlink">
 <g transform="translate(-485.59 -495.67)">
  <g transform="translate(-24.142 -9.9797)" fill="none" stroke="#000" stroke-linecap="round" stroke-width="2.3">
   <path d="m521.14 509.16c-0.77617-1.0837-1.9471-1.878-3.241-2.1985-1.2939-0.32049-2.7002-0.16457-3.8924 0.43156-1.1923 0.59613-2.1608 1.6276-2.6807 2.855-0.51993 1.2274-0.58707 2.6407-0.18581 3.9119 0.32541 1.0309 0.9412 1.9502 1.6584 2.7591s1.5379 1.518 2.3416 2.2409c2.1039 1.8924 4.1076 3.8961 6 6"/>
   <path d="m521.14 509.16c0.77617-1.0837 1.9471-1.878 3.241-2.1985 1.2939-0.32049 2.7002-0.16457 3.8924 0.43156 1.1923 0.59613 2.1608 1.6276 2.6807 2.855 0.51993 1.2274 0.58707 2.6407 0.18581 3.9119-0.32541 1.0309-0.9412 1.9502-1.6584 2.7591s-1.5379 1.518-2.3416 2.2409c-2.1039 1.8924-4.1076 3.8961-6 6"/>
  </g>
 </g>
</svg>
