<?xml version="1.0" encoding="UTF-8"?>
<svg width="1e3" height="356.39" version="1.1" viewBox="135.5 361.38 1e3 356.39" xmlns="http://www.w3.org/2000/svg">
 <path d="m245.81 717.62c-29.796-1.1837-54.173-9.3368-73.235-24.48-3.6378-2.8928-12.306-11.566-15.214-15.224-7.7296-9.7193-12.985-19.178-16.49-29.673-10.786-32.306-5.2347-74.699 15.878-121.22 18.076-39.832 45.969-79.337 94.633-134.05 7.1684-8.0511 28.515-31.597 28.653-31.597 0.051 0-1.1122 2.0153-2.5765 4.4694-12.653 21.194-23.48 46.158-29.378 67.77-9.4745 34.678-8.3316 64.439 3.3469 87.515 8.0561 15.898 21.867 29.668 37.398 37.281 27.189 13.321 66.995 14.424 115.61 3.2245 3.3469-0.7755 169.19-44.801 368.55-97.837 199.36-53.041 362.49-96.403 362.52-96.367 0.056 0.046-463.16 198.26-703.63 301.09-38.082 16.281-48.265 20.393-66.168 26.678-45.765 16.071-86.76 23.74-119.9 22.424z" fill="#fefc02"/>
</svg>
