<?xml version="1.0" encoding="UTF-8"?>
<!-- Created with Inkscape (http://www.inkscape.org/) -->
<svg width="277.5" height="665.96" version="1.1" viewBox="0 0 277.5 665.96" xmlns="http://www.w3.org/2000/svg">
 <g transform="translate(-321.7 164.64)">
  <path d="m321.7 300.19 0.25996-45.894 0.25996-45.894 3.24-0.47807c3.0274-0.44671 93.146-2.6804 106.16-2.6312 3.2542 0.0123 5.5794-0.31513 5.1673-0.72763s-26.25-10.458-57.417-22.323l-56.667-21.573-0.26381-32.789c-0.24927-30.983-0.16662-32.751 1.5-32.09 2.0702 0.82132 268.46 100.26 272.51 101.73l2.75 0.99362v32.902c0 18.096-0.17217 32.902-0.3826 32.902s-16.973-6.3474-37.25-14.105c-43.994-16.832-44.579-17.046-43.971-16.063 0.26231 0.42441 18.716 15.823 41.008 34.22l40.531 33.448 0.0326 99.75c0.0179 54.862-0.26012 99.75-0.61784 99.75-0.59429 0-31.196-11.554-41.142-15.533l-4.2081-1.6837v-66.34l-28.25-10.406c-15.538-5.7235-28.812-10.596-29.5-10.828-0.98225-0.3314-1.25 6.2414-1.25 30.685 0 17.109-0.3375 31.113-0.75 31.12-0.4125 0.01-11.888-4.1512-25.5-9.2405l-24.75-9.2533v-63.171l-31.415-11.746c-17.278-6.4601-32.353-11.991-33.5-12.291l-2.3195-0.77159v77.004l-54.265-20.869zm146.31 20.666c68.373 25.664 124.45 46.504 124.61 46.311s-23.896-22.402-53.467-49.352l-53.766-49-15.348 0.28317c-8.4415 0.15574-29.073 0.70439-45.848 1.2192s-42.112 1.2408-56.303 1.6134c-14.192 0.37255-25.442 1.0341-25 1.47 0.44188 0.43595 56.745 21.791 125.12 47.455zm-138.08-482.63c4.27 1.5787 28.689 10.752 54.264 20.385 25.575 9.6333 83.625 31.474 129 48.534 45.375 17.06 83.288 31.326 84.25 31.701 1.6193 0.63156 1.75 3.239 1.75 34.909 0 18.824-0.19704 34.423-0.43788 34.664-0.24084 0.24084-26.003-1.2521-57.25-3.3176-31.247-2.0655-58.612-3.6501-60.812-3.5212-3.3198 0.19442 6.2837 4.1072 56.476 23.01 33.262 12.527 60.83 23.13 61.264 23.564 0.43371 0.43372 0.66973 15.207 0.52447 32.83l-0.2641 32.042-94-35.327c-51.7-19.43-113.91-42.827-138.25-51.994l-44.25-16.667v-69.724h4.3835c2.4109 0 28.338 1.575 57.616 3.5 29.278 1.925 54.643 3.4798 56.366 3.4552 1.9141-0.0274-20.41-8.8923-57.366-22.78l-60.5-22.735-0.52728-65.399zm-7.2761 180.09c1.0716 0 275.11 103.23 275.8 103.9 0.42026 0.40244 0.64526 15.173 0.5 32.823l-0.2641 32.091-46-17.273c-60.008-22.533-226.5-85.169-228.75-86.06-1.6164-0.63878-1.75-3.1642-1.75-33.085 0-17.816 0.20711-32.393 0.46024-32.393z" fill="#cdd7d9"/>
 </g>
</svg>
